<?xml version="1.0" standalone="no"?>
<!DOCTYPE svg PUBLIC "-//W3C//DTD SVG 20010904//EN"
 "http://www.w3.org/TR/2001/REC-SVG-20010904/DTD/svg10.dtd">
<svg version="1.0" xmlns="http://www.w3.org/2000/svg"
 width="512.000000pt" height="512.000000pt" viewBox="0 0 512.000000 512.000000"
 preserveAspectRatio="xMidYMid meet">

<g transform="translate(0.000000,512.000000) scale(0.100000,-0.100000)"
fill="#000000" stroke="none">
<path d="M3295 5106 c-41 -18 -83 -69 -90 -109 -4 -18 -5 -118 -3 -224 3 -175
5 -194 24 -219 32 -44 68 -66 116 -71 58 -7 108 15 144 63 l29 37 3 196 c4
223 -5 262 -64 308 -42 31 -114 40 -159 19z"/>
<path d="M4430 4639 c-30 -12 -286 -263 -306 -301 -22 -42 -18 -119 9 -158 44
-66 136 -92 203 -57 16 9 90 78 166 154 146 147 158 169 144 248 -17 91 -127
149 -216 114z"/>
<path d="M1757 4310 c-526 -61 -988 -417 -1178 -908 -52 -135 -79 -256 -95
-425 l-6 -68 -62 -41 c-119 -81 -242 -222 -309 -354 -115 -227 -137 -487 -61
-722 110 -338 382 -581 731 -652 102 -20 116 -20 1815 -17 l1713 2 85 23 c107
28 265 105 350 170 171 129 299 326 352 538 31 127 31 324 0 448 -26 103 -94
254 -149 329 -117 162 -294 294 -477 357 -48 16 -51 19 -99 111 l-49 94 -2
155 c-4 188 -24 279 -95 425 -104 212 -249 354 -465 456 -130 60 -236 83 -396
83 -228 1 -409 -59 -588 -196 l-52 -41 -60 37 c-125 77 -290 141 -455 176
-115 24 -328 33 -448 20z m389 -334 c287 -62 537 -231 702 -473 46 -68 104
-181 122 -238 7 -22 16 -44 20 -49 5 -4 29 6 54 23 102 70 268 121 396 121
336 0 640 -249 702 -574 l12 -64 70 -6 c236 -22 457 -195 537 -421 33 -95 45
-203 32 -294 -23 -154 -77 -264 -183 -371 -76 -75 -147 -120 -252 -158 l-73
-27 -1692 -3 c-1893 -3 -1766 -7 -1922 70 -222 110 -364 354 -347 598 10 139
44 238 121 345 73 103 185 187 301 225 l64 22 -6 111 c-25 439 210 856 596
1055 134 70 187 87 400 126 49 9 276 -3 346 -18z m1379 0 c162 -44 292 -143
383 -292 32 -51 66 -134 58 -141 -2 -2 -27 7 -54 21 -193 98 -430 136 -632
102 -52 -9 -104 -18 -115 -22 -17 -4 -31 10 -78 73 -31 43 -70 94 -87 114
l-30 36 40 27 c57 37 140 72 202 85 29 6 62 13 73 15 34 8 188 -3 240 -18z"/>
<path d="M4574 3501 c-61 -28 -89 -73 -89 -143 0 -61 17 -94 69 -132 26 -20
41 -21 246 -21 241 0 243 1 294 69 31 41 29 130 -3 175 -44 61 -82 71 -291 71
-159 0 -191 -3 -226 -19z"/>
<path d="M1215 946 c-37 -16 -70 -52 -84 -89 -7 -17 -11 -108 -11 -219 0 -214
6 -239 68 -286 51 -39 133 -39 184 0 64 49 70 73 66 302 l-3 203 -29 37 c-46
61 -123 82 -191 52z"/>
<path d="M2495 946 c-37 -17 -70 -52 -84 -89 -7 -17 -11 -108 -11 -219 0 -214
6 -239 68 -286 51 -39 133 -39 184 0 62 47 68 72 68 288 0 215 -6 241 -67 287
-41 31 -113 40 -158 19z"/>
<path d="M3775 946 c-41 -18 -83 -69 -90 -109 -4 -18 -5 -118 -3 -224 3 -210
5 -218 72 -267 40 -31 130 -29 174 2 64 46 72 78 72 293 0 214 -6 240 -67 286
-41 31 -113 40 -158 19z"/>
<path d="M1855 626 c-37 -17 -70 -52 -84 -89 -7 -17 -11 -108 -11 -219 0 -214
6 -239 68 -286 51 -39 133 -39 184 0 62 47 68 72 68 288 0 215 -6 241 -67 287
-41 31 -113 40 -158 19z"/>
<path d="M3135 626 c-41 -18 -83 -69 -90 -109 -4 -18 -5 -118 -3 -223 l3 -191
29 -37 c74 -97 217 -82 267 28 26 58 28 399 3 453 -36 74 -136 113 -209 79z"/>
</g>
</svg>
